HIERARCHY
ROOT Hips
{
     OFFSET 1.88212 96.90440 -13.34250
     CHANNELS 6 Xposition Yposition Zposition Zrotation Xrotation Yrotation
     JOINT Spine
     {
          OFFSET 0.00000 11.89050 0.00000
          CHANNELS 3 Zrotation Xrotation Yrotation
          JOINT Spine1
          {
               OFFSET -0.00000 25.65740 0.12766
               CHANNELS 3 Zrotation Xrotation Yrotation
               JOINT HEad
               {
                    OFFSET 0.00000 8.73416 0.01134
                    CHANNELS 3 Zrotation Xrotation Yrotation
                    End Site
                    {
                         OFFSET -0.29000 12.77420 2.51395
                    }
               }
               JOINT LeftShoulder1
               {
                    OFFSET 8.99000 -0.36225 -0.22000
                    CHANNELS 3 Zrotation Xrotation Yrotation
                    JOINT LeftArm
                    {
                         OFFSET 10.28270 -0.00338 0.32212
                         CHANNELS 3 Zrotation Xrotation Yrotation
                         JOINT LeftForeArm
                         {
                              OFFSET 32.76690 0.09914 -1.42434
                              CHANNELS 3 Zrotation Xrotation Yrotation
                              JOINT LeftHand
                              {
                                   OFFSET 27.56430 0.08536 1.02216
                                   CHANNELS 3 Zrotation Xrotation Yrotation
                                   End Site
                                   {
                                        OFFSET 16.74430 -0.60000 1.50291
                                   }
                              }
                         }
                    }
               }
               JOINT RightShoulder
               {
                    OFFSET -8.99000 -0.36225 -0.22000
                    CHANNELS 3 Zrotation Xrotation Yrotation
                    JOINT RightArm
                    {
                         OFFSET -10.28270 -0.00338 0.32212
                         CHANNELS 3 Zrotation Xrotation Yrotation
                         JOINT RightForeArm
                         {
                              OFFSET -32.89710 0.09914 -1.42434
                              CHANNELS 3 Zrotation Xrotation Yrotation
                              JOINT RightHand
                              {
                                   OFFSET -27.49210 0.08536 1.02216
                                   CHANNELS 3 Zrotation Xrotation Yrotation
                                   End Site
                                   {
                                        OFFSET -16.63120 -0.60000 1.50291
                                   }
                              }
                         }
                    }
               }
          }
     }
     JOINT LeftUpLeg
     {
          OFFSET 8.94580 -8.66707 0.10165
          CHANNELS 3 Zrotation Xrotation Yrotation
          JOINT LeftLeg
          {
               OFFSET 0.00000 -44.42270 1.37270
               CHANNELS 3 Zrotation Xrotation Yrotation
               JOINT LeftFoot
               {
                    OFFSET -0.25355 -42.09240 -1.46059
                    CHANNELS 3 Zrotation Xrotation Yrotation
                    JOINT LeftToes
                    {
                         OFFSET -0.04000 -4.41509 8.49910
                         CHANNELS 3 Zrotation Xrotation Yrotation
                         End Site
                         {
                              OFFSET 0.08000 -0.04745 9.77979
                         }
                    }
               }
          }
     }
     JOINT RightUpLeg
     {
          OFFSET -8.94580 -8.66707 0.10165
          CHANNELS 3 Zrotation Xrotation Yrotation
          JOINT RightLeg
          {
               OFFSET 0.00000 -44.42270 1.37270
               CHANNELS 3 Zrotation Xrotation Yrotation
               JOINT RightFoot
               {
                    OFFSET 0.25355 -42.09240 -1.46059
                    CHANNELS 3 Zrotation Xrotation Yrotation
                    JOINT RightToes
                    {
                         OFFSET 0.04000 -4.41509 8.49910
                         CHANNELS 3 Zrotation Xrotation Yrotation
                         End Site
                         {
                              OFFSET -0.08000 -0.13745 9.77979
                         }
                    }
               }
          }
     }
}
MOTION
Frames: 8
Frame Time: 0.01667
19.16402 94.46089 -32.53602 10.29415 9.53194 123.37640 -4.26255 21.70050 -5.09449 0.02408 -0.00692 -0.01820 -3.44903 -1.25795 26.47581 2.97047 9.22645 -2.01475 -150.61732 -33.54216 -134.58806 -86.10788 67.43378 -32.83953 27.83159 8.30142 -9.27270 14.56245 8.68904 -8.59375 79.81480 -24.33430 84.28008 -6.18938 25.42090 101.05237 19.50454 11.77660 9.91720 6.60154 5.88341 -15.61014 -14.64810 -3.77203 81.02715 12.54316 0.07714 -0.01454 12.95244 27.56896 -69.28993 -16.12610 -3.66637 8.48597 34.93195 22.75740 -52.45212 29.98457 -0.03623 -0.08117 -46.93447 -49.30344 26.59425 
18.79934 95.52036 -32.42924 10.05392 14.96851 120.29946 -9.46682 23.63275 -2.57687 0.02260 -0.00205 -0.01458 -4.34849 -1.92557 26.01717 2.66770 9.18297 -2.08137 -149.36858 -33.48798 -135.35234 -83.89470 66.89819 -34.94313 28.69138 8.59185 -8.66574 13.57267 8.77068 -8.35588 76.28675 -18.02932 89.48407 -12.57157 23.32455 101.00775 20.62992 13.16549 1.54948 3.07757 4.29968 -9.88953 -19.87479 4.59557 76.81989 10.92652 -0.03296 -0.03093 24.14240 43.70593 -71.87463 -20.83996 -1.41338 13.02021 33.73441 21.06786 -52.17639 38.45532 -0.06138 -0.08928 -54.88885 -47.42716 26.41136 
18.41589 96.58295 -32.21333 10.34420 21.38660 116.00597 -15.83229 25.23975 1.05350 0.01956 0.00299 -0.01059 -5.32046 -2.89958 24.40254 1.97333 9.52450 -1.98785 -143.81207 -35.30092 -135.62569 -73.07020 63.71392 -44.35577 29.61400 9.02700 -7.61215 11.96861 9.30837 -7.71498 72.53410 -10.83738 93.63609 -18.61798 21.24936 99.03503 21.86630 -2.53152 21.42762 -0.63952 2.03558 -2.57056 -25.17181 15.10496 71.69168 5.79657 -0.14742 -0.16683 27.04057 54.54731 -61.27987 -26.69143 0.71570 18.72921 32.49534 19.08304 -51.66556 46.47255 -0.08307 -0.08571 -62.61787 -45.18214 26.07932 
18.04982 97.65285 -31.93819 11.59181 28.32409 110.21629 -23.03521 26.23730 5.87117 0.01559 0.01002 -0.00447 -6.41773 -4.13728 21.77103 1.01431 10.12060 -1.69981 -135.40810 -39.33405 -134.15547 -59.72738 58.23432 -55.99822 30.38945 9.64182 -6.54429 9.65878 10.16293 -6.42321 68.94321 -3.40233 97.00764 -20.33616 20.58933 97.83545 19.90409 -0.68771 12.39099 -3.83048 -0.84111 6.37117 -29.45272 27.48706 66.01067 -3.58948 -0.42066 -0.30361 8.69337 65.41524 -30.84065 -33.39501 2.25560 25.55523 31.25073 16.87616 -50.94387 54.06338 -0.09793 -0.07477 -70.06838 -42.63418 25.58871 
17.73110 98.72820 -31.63472 13.45138 34.11591 104.63992 -28.74809 26.33460 9.66281 0.00992 0.01630 0.00154 -7.82255 -5.07648 19.65362 -0.18769 10.88836 -0.97034 -124.65697 -44.66275 -129.72417 -43.55906 50.63045 -65.39390 30.56416 21.85389 4.53698 6.75978 11.18314 -4.60701 65.66682 4.18415 100.08048 -19.27140 20.60743 96.83475 20.80883 3.75257 7.75401 -4.92994 -4.93042 15.17396 -30.97378 40.83120 59.76519 -21.81537 -0.82966 -0.52006 -23.83483 67.73833 16.83291 -39.50813 3.14234 31.42961 29.98682 14.48969 -50.04929 61.20147 -0.10361 -0.06055 -77.17975 -39.90028 24.93039 
17.47259 99.78646 -31.29866 15.76337 38.86997 99.21580 -33.05542 25.89269 12.49780 -0.00081 0.02295 0.00786 -9.45696 -5.78604 17.97731 -1.60723 11.76695 0.20735 -110.92371 -50.00729 -120.99278 -30.03353 39.53266 -69.55930 28.63332 9.44021 -6.69808 3.49125 12.23687 -2.32076 63.85083 8.29185 102.02106 -13.14739 21.31658 96.50285 20.48635 9.96163 -1.20266 -4.00147 -9.77900 23.94071 -27.67455 53.64320 52.57089 -23.94972 -0.11037 -0.04452 -53.97692 57.35957 43.56464 -44.96962 3.62466 36.37780 28.69526 11.96068 -49.05548 67.78821 -0.09930 -0.04721 -83.89063 -37.08736 24.03856 
17.29463 100.78534 -30.96652 18.39809 42.71316 93.94037 -36.11496 25.17490 14.50912 -0.01045 0.02669 0.01192 -11.26629 -6.31184 16.68798 -3.16463 12.69649 1.63976 -93.38318 -53.65652 -107.00677 -19.82153 25.65515 -68.89912 23.76512 18.61374 10.15704 0.13825 13.22812 0.09937 62.87352 10.94068 103.40412 -9.30680 21.42748 95.60623 23.91350 7.00680 13.63437 -1.09933 -14.97120 32.76586 -16.43077 64.71998 40.78165 -48.19086 -0.68765 0.52630 -50.55598 46.06894 52.99522 -50.20364 4.18479 39.41353 27.39878 9.29903 -46.86600 73.60816 -0.08711 -0.03850 -90.12095 -34.23558 22.90018 
17.17140 101.62832 -30.63153 21.24313 45.78750 88.85093 -38.14859 24.36167 15.83884 -0.01857 0.02876 0.01365 -13.19462 -6.68752 15.75012 -4.96898 13.68828 3.23668 -73.21228 -53.72112 -89.13338 -11.95160 9.92661 -65.12515 21.52185 10.18786 -10.20430 -3.21908 14.18936 2.40594 62.32850 13.24306 104.66489 -7.12484 21.55479 94.50862 21.35757 10.44788 3.09260 3.95296 -19.98834 41.72941 -1.77920 71.27451 27.92496 -31.31073 0.22123 -0.69251 -79.85403 34.43770 56.67532 -55.01509 4.76837 40.69460 26.26630 6.67708 -43.79178 78.52401 -0.07021 -0.03391 -97.72655 -20.74813 7.60354 
